HIERARCHY
ROOT root
{
	OFFSET 0.000000 0.000000 0.000000
	CHANNELS 6 Xposition Yposition Zposition Zrotation Yrotation Xrotation
	JOINT lhip
	{
		OFFSET 0.058581 -0.082280 -0.017664
		CHANNELS 3 Zrotation Yrotation Xrotation
		JOINT lknee
		{
			OFFSET 0.043451 -0.386469 0.008037
			CHANNELS 3 Zrotation Yrotation Xrotation
			JOINT lankle
			{
				OFFSET -0.014790 -0.426874 -0.037428
				CHANNELS 3 Zrotation Yrotation Xrotation
				JOINT ltoe
				{
					OFFSET 0.041054 -0.060286 0.122042
					CHANNELS 3 Zrotation Yrotation Xrotation
					End Site
					{
						OFFSET 0.000000 0.000000 0.000000
					}
				}
			}
		}
	}
	JOINT rhip
	{
		OFFSET -0.060310 -0.090513 -0.013543
		CHANNELS 3 Zrotation Yrotation Xrotation
		JOINT rknee
		{
			OFFSET -0.043257 -0.383688 -0.004843
			CHANNELS 3 Zrotation Yrotation Xrotation
			JOINT rankle
			{
				OFFSET 0.019056 -0.420046 -0.034562
				CHANNELS 3 Zrotation Yrotation Xrotation
				JOINT rtoe
				{
					OFFSET -0.034840 -0.062106 0.130323
					CHANNELS 3 Zrotation Yrotation Xrotation
					End Site
					{
						OFFSET 0.000000 0.000000 0.000000
					}
				}
			}
		}
	}
	JOINT lowerback
	{
		OFFSET 0.004439 0.124404 -0.038385
		CHANNELS 3 Zrotation Yrotation Xrotation
		JOINT upperback
		{
			OFFSET 0.004488 0.137956 0.026820
			CHANNELS 3 Zrotation Yrotation Xrotation
			JOINT chest
			{
				OFFSET -0.002265 0.056032 0.002855
				CHANNELS 3 Zrotation Yrotation Xrotation
				JOINT lowerneck
				{
					OFFSET -0.013390 0.211636 -0.033468
					CHANNELS 3 Zrotation Yrotation Xrotation
					JOINT upperneck
					{
						OFFSET 0.010113 0.088937 0.050410
						CHANNELS 3 Zrotation Yrotation Xrotation
						End Site
						{
							OFFSET 0.000000 0.000000 0.000000
						}
					}
				}
				JOINT lclavicle
				{
					OFFSET 0.071702 0.114000 -0.018898
					CHANNELS 3 Zrotation Yrotation Xrotation
					JOINT lshoulder
					{
						OFFSET 0.122921 0.045205 -0.019046
						CHANNELS 3 Zrotation Yrotation Xrotation
						JOINT lelbow
						{
							OFFSET 0.255332 -0.015649 -0.022946
							CHANNELS 3 Zrotation Yrotation Xrotation
							JOINT lwrist
							{
								OFFSET 0.265709 0.012698 -0.007375
								CHANNELS 3 Zrotation Yrotation Xrotation
								End Site
								{
									OFFSET 0.000000 0.000000 0.000000
								}
							}
						}
					}
				}
				JOINT rclavicle
				{
					OFFSET -0.082954 0.112472 -0.023707
					CHANNELS 3 Zrotation Yrotation Xrotation
					JOINT rshoulder
					{
						OFFSET -0.113228 0.046853 -0.008472
						CHANNELS 3 Zrotation Yrotation Xrotation
						JOINT relbow
						{
							OFFSET -0.260127 -0.014369 -0.031269
							CHANNELS 3 Zrotation Yrotation Xrotation
							JOINT rwrist
							{
								OFFSET -0.269108 0.006794 -0.006027
								CHANNELS 3 Zrotation Yrotation Xrotation
								End Site
								{
									OFFSET 0.000000 0.000000 0.000000
								}
							}
						}
					}
				}
			}
		}
	}
}
MOTION
Frames: 11
Frame Time: 0.033333
-0.236659 2.995115 0.977707 -175.846989 1.113884 83.469580 4.160114 3.536228 11.599907 -3.655345 -2.835490 -0.097164 2.123634 10.484038 -14.610608 0.000000 -0.000000 0.000000 -0.836106 -5.216463 5.173936 2.097414 -5.743812 10.336415 0.446331 -7.637619 -16.916454 0.000000 -0.000000 0.000000 0.902857 -0.096358 2.082754 0.150878 -2.955315 8.485743 0.517144 -1.416197 -1.564570 1.227453 4.702414 3.022202 3.007301 3.699718 -3.467915 -29.402540 -3.995656 5.707114 -61.754000 -6.559464 5.804896 14.032177 -22.057132 -6.099817 -3.777302 -5.808700 -6.085310 24.938471 7.539679 8.509126 60.569740 4.799209 10.095496 -14.264400 21.508105 -6.642502 5.451008 6.193591 -9.854581 
-0.236482 2.994857 0.977530 -175.764415 1.126848 83.403591 4.180223 3.415720 11.604174 -3.671708 -2.832544 -0.006666 2.095726 10.504264 -14.641575 0.000000 -0.000000 0.000000 -0.801984 -5.122102 5.270509 2.133233 -5.744141 10.298725 0.585937 -7.816109 -16.945442 0.000000 -0.000000 0.000000 0.933793 -0.204493 2.216150 0.048510 -2.880414 8.165881 0.585661 -1.423396 -1.162016 1.325402 4.670018 2.606244 2.958332 3.626055 -3.075665 -29.264714 -3.982235 5.681842 -61.962803 -6.771620 5.711319 14.157030 -21.939126 -5.985923 -3.963544 -5.746269 -6.076358 24.827046 7.595324 8.487249 60.804987 4.891101 10.192262 -14.434879 21.490710 -6.638156 5.457935 6.199924 -9.981758 
-0.236359 2.994637 0.977453 -175.682910 1.126686 83.355595 4.184268 3.356299 11.570025 -3.682527 -2.863185 0.121003 2.121868 10.504507 -14.685114 0.000000 -0.000000 0.000000 -0.793416 -5.132409 5.340977 2.138875 -5.762589 10.266767 0.579542 -7.866320 -16.950679 0.000000 -0.000000 0.000000 0.944977 -0.219537 2.303450 0.024580 -2.881859 8.090358 0.594940 -1.425280 -1.088062 1.369771 4.688748 2.484933 2.976421 3.645438 -2.885365 -29.240829 -3.982991 5.675661 -62.053046 -6.874896 5.660060 14.276484 -21.856975 -6.041262 -4.022628 -5.715744 -6.165352 24.799577 7.605418 8.509920 60.921143 4.903613 10.236211 -14.496258 21.493161 -6.598723 5.524059 6.182919 -10.103305 
-0.236318 2.994469 0.977343 -175.619881 1.119539 83.327704 4.179329 3.303915 11.551209 -3.697573 -2.882202 0.195749 2.145171 10.503304 -14.721233 0.000000 -0.000000 0.000000 -0.817657 -5.162765 5.411458 2.169598 -5.759729 10.204737 0.570800 -7.885519 -16.944960 0.000000 -0.000000 0.000000 0.977355 -0.212473 2.359049 0.001885 -2.857007 8.016294 0.587868 -1.414728 -1.015516 1.397440 4.724571 2.397206 2.979655 3.661340 -2.701038 -29.255462 -3.907797 5.615053 -62.133551 -7.039825 5.593188 14.448200 -21.692877 -6.105504 -4.074607 -5.750953 -6.277319 24.804280 7.532743 8.504334 60.983633 4.917638 10.280914 -14.541852 21.490965 -6.557965 5.583778 6.153621 -10.195132 
-0.236346 2.994390 0.977291 -175.604829 1.107131 83.329008 4.164332 3.283817 11.546744 -3.705042 -2.890173 0.204085 2.151741 10.500895 -14.733464 0.000000 -0.000000 0.000000 -0.842170 -5.178553 5.418638 2.182270 -5.746752 10.194280 0.572559 -7.885932 -16.947506 0.000000 -0.000000 0.000000 0.993083 -0.203659 2.354296 -0.007272 -2.832674 8.002742 0.574776 -1.402691 -0.986754 1.409659 4.739986 2.367523 2.966462 3.655104 -2.610364 -29.259594 -3.839423 5.556674 -62.152898 -7.115057 5.562449 14.519732 -21.625371 -6.155158 -4.100292 -5.770432 -6.320829 24.809538 7.476560 8.479319 60.998582 4.935713 10.303214 -14.557268 21.472792 -6.550969 5.584352 6.154109 -10.193963 
-0.236388 2.994317 0.977270 -175.597840 1.088922 83.322865 4.138255 3.273232 11.560237 -3.706319 -2.908295 0.195159 2.158308 10.507408 -14.736694 0.000000 -0.000000 0.000000 -0.860612 -5.180384 5.419965 2.176974 -5.731789 10.202731 0.567173 -7.900410 -16.954343 0.000000 -0.000000 0.000000 1.003280 -0.193888 2.342536 -0.012192 -2.802460 8.021847 0.557835 -1.386735 -0.966562 1.425865 4.753769 2.330556 2.937378 3.647956 -2.514359 -29.261385 -3.765116 5.504060 -62.131654 -7.150278 5.519284 14.577206 -21.649377 -6.261850 -4.101375 -5.774443 -6.363774 24.836137 7.422516 8.450745 60.979372 4.959023 10.307251 -14.571841 21.449983 -6.574385 5.570225 6.156168 -10.141118 
-0.236430 2.994191 0.977254 -175.578397 1.073634 83.315878 4.116647 3.259091 11.555334 -3.707930 -2.913519 0.200556 2.174620 10.506365 -14.736561 0.000000 -0.000000 0.000000 -0.871978 -5.193664 5.399231 2.159825 -5.724440 10.241998 0.551618 -7.920300 -16.963176 0.000000 -0.000000 0.000000 0.998764 -0.180629 2.369583 -0.007060 -2.785944 8.036132 0.551608 -1.381680 -0.958382 1.434038 4.758887 2.278618 2.909781 3.635309 -2.435588 -29.270356 -3.694562 5.443039 -62.061877 -7.168901 5.479885 14.598222 -21.676254 -6.371511 -4.093055 -5.789742 -6.403211 24.868394 7.366042 8.403679 60.943465 4.978491 10.302607 -14.581960 21.443002 -6.620414 5.557715 6.161457 -10.093350 
-0.236465 2.994038 0.977227 -175.545301 1.060827 83.321773 4.101810 3.252533 11.537830 -3.712423 -2.933511 0.198454 2.186628 10.500470 -14.731280 0.000000 -0.000000 0.000000 -0.879068 -5.196947 5.361890 2.143960 -5.728895 10.290962 0.545445 -7.948212 -16.981179 0.000000 -0.000000 0.000000 0.977439 -0.166944 2.405597 0.002704 -2.777085 8.036278 0.556665 -1.385600 -0.944913 1.457898 4.779776 2.189210 2.889023 3.619121 -2.351501 -29.257203 -3.640952 5.390264 -61.976590 -7.175570 5.437383 14.626832 -21.694659 -6.467824 -4.094089 -5.788757 -6.429966 24.908013 7.319708 8.360405 60.892840 4.982492 10.297033 -14.608146 21.473961 -6.666148 5.566787 6.172838 -10.061901 
-0.236495 2.993874 0.977212 -175.499515 1.056066 83.325613 4.095190 3.249218 11.526741 -3.712905 -2.961665 0.190013 2.189486 10.490981 -14.717628 0.000000 -0.000000 0.000000 -0.882838 -5.198316 5.352418 2.143239 -5.741347 10.301252 0.548824 -7.982118 -16.985799 0.000000 -0.000000 0.000000 0.946394 -0.169045 2.444622 0.010970 -2.782696 8.038957 0.568382 -1.385842 -0.918873 1.491899 4.800337 2.073429 2.889085 3.582670 -2.297939 -29.210672 -3.611827 5.338793 -61.879680 -7.173773 5.385055 14.675128 -21.692381 -6.549495 -4.091509 -5.762434 -6.468135 24.950579 7.281942 8.326646 60.835638 5.004165 10.278647 -14.642766 21.520296 -6.713288 5.568180 6.176481 -10.040997 
-0.236501 2.993812 0.977169 -175.470892 1.060967 83.331589 4.107894 3.260586 11.528714 -3.715747 -2.989927 0.163756 2.197119 10.478645 -14.707174 0.000000 -0.000000 0.000000 -0.881069 -5.221759 5.352357 2.148629 -5.731543 10.292041 0.532447 -8.002690 -16.989855 0.000000 -0.000000 0.000000 0.922543 -0.158429 2.478743 0.021359 -2.781845 8.050556 0.566963 -1.390209 -0.902897 1.552563 4.806094 1.991550 2.867446 3.525646 -2.252801 -29.185918 -3.543111 5.224006 -61.671837 -7.161402 5.325612 14.739624 -21.598256 -6.679880 -4.098314 -5.726749 -6.450889 25.022412 7.204544 8.245125 60.769897 5.026869 10.259965 -14.683379 21.533163 -6.801706 5.576748 6.179073 -9.981726 
-0.236464 2.993825 0.977115 -175.482609 1.067424 83.339462 4.123551 3.274696 11.547422 -3.718584 -3.003478 0.122166 2.200563 10.476020 -14.695010 0.000000 -0.000000 0.000000 -0.873406 -5.234215 5.353610 2.154859 -5.705331 10.275146 0.511332 -8.014280 -16.986993 0.000000 -0.000000 0.000000 0.911408 -0.141790 2.485027 0.023105 -2.766973 8.053391 0.558045 -1.392127 -0.883784 1.614858 4.804273 1.956105 2.841909 3.505461 -2.177578 -29.166343 -3.474812 5.137177 -61.476081 -7.157635 5.277513 14.796894 -21.495042 -6.781632 -4.105153 -5.708067 -6.431286 25.068785 7.143251 8.175831 60.750927 5.053797 10.259630 -14.718056 21.499974 -6.877163 5.598424 6.169911 -9.978007 
